<?xml version="1.0" encoding="UTF-8" ?>
<!DOCTYPE svg PUBLIC "-//W3C//DTD SVG 1.1//EN" "http://www.w3.org/Graphics/SVG/1.1/DTD/svg11.dtd">
<svg width="574pt" height="785pt" viewBox="0 0 574 785" version="1.1" xmlns="http://www.w3.org/2000/svg">
<path fill="#fefefe" d=" M 0.00 0.00 L 260.49 0.00 C 205.99 1.41 151.51 6.30 97.88 16.28 C 67.22 22.03 36.86 29.74 7.59 40.59 C 3.72 41.86 0.40 45.07 0.00 49.28 L 0.00 0.00 Z" />
<path fill="#1a8c9b" d=" M 260.49 0.00 L 306.45 0.00 C 374.13 1.77 442.17 6.80 508.10 23.02 C 526.54 27.56 544.79 32.90 562.70 39.23 C 565.69 40.37 568.85 41.52 571.12 43.86 C 573.12 45.88 573.58 48.79 574.00 51.48 L 574.00 170.07 L 573.62 170.72 C 501.33 146.99 426.40 128.67 350.01 126.73 C 349.97 226.17 350.04 325.60 349.97 425.04 C 328.81 404.24 308.18 382.92 287.14 362.01 C 266.42 382.70 245.73 403.42 225.02 424.11 C 224.97 324.98 225.02 225.85 224.99 126.72 C 148.12 128.68 72.91 147.61 0.00 170.82 L 0.00 49.28 C 0.40 45.07 3.72 41.86 7.59 40.59 C 36.86 29.74 67.22 22.03 97.88 16.28 C 151.51 6.30 205.99 1.41 260.49 0.00 Z" />
<path fill="#fefefe" d=" M 306.45 0.00 L 574.00 0.00 L 574.00 51.48 C 573.58 48.79 573.12 45.88 571.12 43.86 C 568.85 41.52 565.69 40.37 562.70 39.23 C 544.79 32.90 526.54 27.56 508.10 23.02 C 442.17 6.80 374.13 1.77 306.45 0.00 Z" />
<path fill="#fefefe" d=" M 0.00 170.82 C 72.91 147.61 148.12 128.68 224.99 126.72 C 225.02 225.85 224.97 324.98 225.02 424.11 C 245.73 403.42 266.42 382.70 287.14 362.01 C 308.18 382.92 328.81 404.24 349.97 425.04 C 350.04 325.60 349.97 226.17 350.01 126.73 C 426.40 128.67 501.33 146.99 573.62 170.72 L 574.00 170.07 L 574.00 785.00 L 287.18 785.00 C 302.23 767.65 317.16 750.21 332.10 732.77 C 317.12 715.25 302.09 697.77 287.02 680.33 C 271.98 697.72 257.12 715.28 241.97 732.57 C 256.65 750.26 271.94 767.44 286.79 785.00 L 0.00 785.00 L 0.00 170.82 Z" />
<path fill="#1a8c9b" d=" M 1.57 269.20 C 35.03 259.56 68.47 249.83 101.91 240.12 C 111.28 284.41 119.41 328.96 129.26 373.16 C 139.93 421.38 152.39 469.78 174.88 514.03 C 181.96 528.13 190.02 541.75 199.07 554.67 C 228.55 521.01 257.90 487.24 287.35 453.55 C 316.97 487.41 346.49 521.34 376.05 555.24 C 384.62 540.66 393.92 526.45 400.99 511.05 C 420.38 470.72 433.51 427.68 443.63 384.18 C 454.65 336.84 462.35 288.82 471.48 241.11 C 481.34 243.34 491.31 245.17 501.02 248.04 C 521.61 254.02 541.96 260.83 562.66 266.44 C 565.43 267.32 568.39 268.44 570.16 270.88 C 572.14 273.45 572.49 276.82 572.52 279.96 C 568.44 370.74 545.63 460.55 506.47 542.52 C 477.27 603.75 438.25 660.31 391.20 709.20 C 389.56 710.83 388.75 713.06 387.68 715.07 C 354.14 673.50 320.83 631.74 287.41 590.06 C 261.54 622.31 235.64 654.52 209.78 686.77 C 202.32 695.89 195.18 705.28 187.55 714.26 C 161.05 685.84 136.35 655.67 114.73 623.35 C 91.87 589.51 72.20 553.50 56.14 515.95 C 22.64 438.07 5.34 353.75 1.57 269.20 Z" />
<path fill="#c2d11d" d=" M 241.97 732.57 C 257.12 715.28 271.98 697.72 287.02 680.33 C 302.09 697.77 317.12 715.25 332.10 732.77 C 317.16 750.21 302.23 767.65 287.18 785.00 L 286.79 785.00 C 271.94 767.44 256.65 750.26 241.97 732.57 Z" />
</svg>
